<svg xmlns="http://www.w3.org/2000/svg" xmlns:xlink="http://www.w3.org/1999/xlink" width="257" height="257" viewBox="0 0 257 257">
  <defs>
    <clipPath id="clip-path">
      <rect id="Rectangle_506" data-name="Rectangle 506" width="112.798" height="118.431" fill="none" stroke="#3a465a" stroke-width="3"/>
    </clipPath>
  </defs>
  <g id="Group_305" data-name="Group 305" transform="translate(-182 -5462)">
    <circle id="Ellipse_8" data-name="Ellipse 8" cx="128.5" cy="128.5" r="128.5" transform="translate(182 5462)" fill="#fff" opacity="0.29"/>
    <g id="Group_297" data-name="Group 297" transform="translate(253.101 5534.993)">
      <g id="Group_296" data-name="Group 296" transform="translate(0 0)" clip-path="url(#clip-path)">
        <path id="Path_767" data-name="Path 767" d="M20.675,46.909C8.044,35.772,1.485,25.088,4.9,19.233c2.822-4.846,11.9-5.38,23.973-2.307" transform="translate(3.006 11.281)" fill="none" stroke="#3a465a" stroke-linecap="round" stroke-miterlimit="10" stroke-width="3"/>
        <path id="Path_768" data-name="Path 768" d="M82.164,46.4c.821,2.72.753,5.088-.338,6.962-4.571,7.845-25.513,4.4-49.047-7.379" transform="translate(24.631 34.555)" fill="none" stroke="#3a465a" stroke-linecap="round" stroke-miterlimit="10" stroke-width="3"/>
        <path id="Path_769" data-name="Path 769" d="M38.341,24.8c13.088,7.69,23.97,16.341,31.095,24.212" transform="translate(28.81 18.638)" fill="none" stroke="#3a465a" stroke-linecap="round" stroke-miterlimit="10" stroke-width="3"/>
        <path id="Path_770" data-name="Path 770" d="M11.27,57.643c7.232-8.428,19.238-17.929,33.9-26.191C72.6,15.991,98.949,10.729,104.006,19.7S90.919,48.486,63.481,63.95,9.7,84.672,4.644,75.7a7.6,7.6,0,0,1-.7-5.132" transform="translate(2.853 11.515)" fill="none" stroke="#3a465a" stroke-miterlimit="10" stroke-width="3"/>
        <path id="Path_771" data-name="Path 771" d="M29.142,4.273c1.874-1.955,3.886-3.018,5.983-3.023,5.75-.014,10.915,7.932,14.37,20.432" transform="translate(21.898 0.939)" fill="none" stroke="#3a465a" stroke-linecap="round" stroke-miterlimit="10" stroke-width="3"/>
        <path id="Path_772" data-name="Path 772" d="M54.892,88.134c-3.389,12.157-8.433,19.861-14.087,19.877C30.5,108.039,22.083,82.531,22,51.032c-.042-15.614,1.972-29.769,5.268-40.076" transform="translate(16.529 8.232)" fill="none" stroke="#3a465a" stroke-linecap="round" stroke-miterlimit="10" stroke-width="3"/>
        <path id="Path_773" data-name="Path 773" d="M37.267,10.08a7.447,7.447,0,1,1-7.445-7.447A7.444,7.444,0,0,1,37.267,10.08Z" transform="translate(16.811 1.978)" fill="none" stroke="#3a465a" stroke-linejoin="round" stroke-width="3"/>
        <path id="Path_774" data-name="Path 774" d="M16.144,46.238A7.447,7.447,0,1,1,8.7,38.791,7.444,7.444,0,0,1,16.144,46.238Z" transform="translate(0.939 29.148)" fill="none" stroke="#3a465a" stroke-linejoin="round" stroke-width="3"/>
        <path id="Path_775" data-name="Path 775" d="M69.544,45.514A7.447,7.447,0,1,1,62.1,38.067,7.444,7.444,0,0,1,69.544,45.514Z" transform="translate(41.065 28.604)" fill="none" stroke="#3a465a" stroke-linejoin="round" stroke-width="3"/>
        <path id="Path_776" data-name="Path 776" d="M34.222,39.089a3.693,3.693,0,1,1,1.823-6.908,3.687,3.687,0,0,1,1.4,5.028,3.7,3.7,0,0,1-3.219,1.879" transform="translate(22.948 23.822)" fill="none" stroke="#3a465a" stroke-width="3"/>
        <path id="Path_777" data-name="Path 777" d="M34.222,39.089a3.693,3.693,0,1,1,1.823-6.908,3.687,3.687,0,0,1,1.4,5.028A3.7,3.7,0,0,1,34.222,39.089Z" transform="translate(22.948 23.822)" fill="none" stroke="#3a465a" stroke-miterlimit="10" stroke-width="3"/>
      </g>
    </g>
  </g>
</svg>
