<svg id="Group_149" data-name="Group 149" xmlns="http://www.w3.org/2000/svg" xmlns:xlink="http://www.w3.org/1999/xlink" width="388.18" height="508.818" viewBox="0 0 388.18 508.818">
  <defs>
    <clipPath id="clip-path">
      <rect id="Rectangle_178" data-name="Rectangle 178" width="388.18" height="508.818" fill="none"/>
    </clipPath>
  </defs>
  <g id="Group_148" data-name="Group 148" clip-path="url(#clip-path)">
    <path id="Path_333" data-name="Path 333" d="M326.6,453.337c0,21.979-49.636,39.8-110.867,39.8s-110.867-17.819-110.867-39.8,49.636-39.8,110.867-39.8S326.6,431.358,326.6,453.337" transform="translate(-19.379 -76.424)" fill="#dfdfde"/>
    <path id="Path_334" data-name="Path 334" d="M107.424,498.016c0,10.108-22.825,18.3-50.982,18.3s-50.983-8.193-50.983-18.3,22.826-18.3,50.983-18.3,50.982,8.194,50.982,18.3" transform="translate(-1.009 -88.654)" fill="#dfdfde"/>
    <path id="Path_335" data-name="Path 335" d="M429.973,514.7c0,14.8-33.418,26.794-74.642,26.794s-74.642-12-74.642-26.794S314.108,487.9,355.331,487.9s74.642,12,74.642,26.794" transform="translate(-51.873 -90.167)" fill="#dfdfde"/>
    <path id="Path_336" data-name="Path 336" d="M410.86,608.856c0,5.818-13.139,10.535-29.347,10.535s-29.347-4.717-29.347-10.535,13.139-10.535,29.347-10.535,29.347,4.717,29.347,10.535" transform="translate(-78.054 -120.573)" fill="#dfdfde"/>
    <path id="Path_337" data-name="Path 337" d="M211.12,296.907c-61.23,0-110.867-23.028-110.867-51.434a110.867,110.867,0,1,0,221.733,0c0,28.406-49.636,51.434-110.866,51.434" transform="translate(-18.527 -45.365)" fill="#90adc1"/>
    <path id="Path_338" data-name="Path 338" d="M211.12,168.906c61.23,0,110.866,23.028,110.866,51.434a110.867,110.867,0,1,0-221.733,0c0-28.406,49.636-51.434,110.867-51.434" transform="translate(-18.527 -20.231)" fill="#9abad1"/>
    <path id="Path_339" data-name="Path 339" d="M211.12,285.247c61.23,0,110.866-23.028,110.866-51.434S272.35,182.38,211.12,182.38s-110.867,23.028-110.867,51.433,49.636,51.434,110.867,51.434" transform="translate(-18.527 -33.705)" fill="#9abad1"/>
    <path id="Path_340" data-name="Path 340" d="M55.433,289.857C24.819,289.857,0,278.343,0,264.14a55.433,55.433,0,1,0,110.867,0c0,14.2-24.819,25.717-55.433,25.717" transform="translate(0 -48.814)" fill="#567375"/>
    <path id="Path_341" data-name="Path 341" d="M55.433,225.857c30.615,0,55.433,11.514,55.433,25.717A55.433,55.433,0,1,0,0,251.574c0-14.2,24.819-25.717,55.433-25.717" transform="translate(0 -36.248)" fill="#5f8388"/>
    <path id="Path_342" data-name="Path 342" d="M55.433,284.027c30.615,0,55.433-11.514,55.433-25.717s-24.819-25.717-55.433-25.717S0,244.108,0,258.31s24.819,25.717,55.433,25.717" transform="translate(0 -42.984)" fill="#5f8388"/>
    <path id="Path_343" data-name="Path 343" d="M353.046,143.234c-46.791,0-84.722-17.6-84.722-39.3a84.722,84.722,0,0,0,169.445,0c0,21.707-37.932,39.3-84.722,39.3" transform="translate(-49.588 -19.207)" fill="#e3b263"/>
    <path id="Path_344" data-name="Path 344" d="M353.046,45.418c46.791,0,84.722,17.6,84.722,39.3a84.722,84.722,0,0,0-169.445,0c0-21.707,37.932-39.3,84.722-39.3" transform="translate(-49.588)" fill="#fec766"/>
    <path id="Path_345" data-name="Path 345" d="M353.046,134.323c46.791,0,84.722-17.6,84.722-39.3s-37.932-39.3-84.722-39.3-84.722,17.6-84.722,39.3,37.932,39.3,84.722,39.3" transform="translate(-49.588 -10.296)" fill="#fec766"/>
    <path id="Path_346" data-name="Path 346" d="M353.847,365.215c-18.506,0-33.507-6.96-33.507-15.545a33.507,33.507,0,0,0,67.014,0c0,8.585-15,15.545-33.507,15.545" transform="translate(-57.388 -66.621)" fill="#1d2530"/>
    <path id="Path_347" data-name="Path 347" d="M353.847,315.719c18.506,0,33.507,6.96,33.507,15.545a33.507,33.507,0,0,0-67.014,0c0-8.585,15-15.545,33.507-15.545" transform="translate(-57.388 -48.215)" fill="#27354b"/>
    <path id="Path_348" data-name="Path 348" d="M353.847,356.676c18.506,0,33.507-6.96,33.507-15.545s-15-15.544-33.507-15.544-33.507,6.959-33.507,15.544,15,15.545,33.507,15.545" transform="translate(-57.388 -58.082)" fill="#27354b"/>
  </g>
</svg>
