<svg xmlns="http://www.w3.org/2000/svg" width="401.658" height="323.829" viewBox="0 0 401.658 323.829">
  <g id="Group_169" data-name="Group 169" transform="translate(0 0)">
    <path id="Path_676" data-name="Path 676" d="M0,118.036l175.039,91.738L401.658,86.836l-159.7-65.468Z" transform="translate(0 114.055)" fill="#3d485a"/>
    <path id="Path_677" data-name="Path 677" d="M0,103.535l175.039,91.738L401.658,72.334,241.963,6.867Z" transform="translate(0 48.999)" fill="#131d2c"/>
    <rect id="Rectangle_301" data-name="Rectangle 301" width="86.328" height="19.241" transform="translate(0 133.064)" fill="#131d2c"/>
    <rect id="Rectangle_302" data-name="Rectangle 302" width="86.336" height="19.233" transform="translate(315.322 101.725)" fill="#131d2c"/>
    <path id="Path_678" data-name="Path 678" d="M0,101.142l175.039,91.738L401.658,69.949,241.963,4.473Z" transform="translate(0 31.923)" fill="#233247"/>
    <path id="Path_679" data-name="Path 679" d="M0,101.442,175.039,193.18,401.658,70.242,241.963,4.774Z" transform="translate(0 34.068)" fill="#1f363a"/>
    <rect id="Rectangle_303" data-name="Rectangle 303" width="86.328" height="19.241" transform="translate(0 116.044)" fill="#1f363a"/>
    <rect id="Rectangle_304" data-name="Rectangle 304" width="86.336" height="19.233" transform="translate(315.322 84.705)" fill="#1f363a"/>
    <path id="Path_680" data-name="Path 680" d="M0,99.049l175.039,91.738L401.658,67.857,241.963,2.381Z" transform="translate(0 16.991)" fill="#4d7175"/>
    <path id="Path_681" data-name="Path 681" d="M0,99.061,175.039,190.8,401.658,67.869,241.963,2.393Z" transform="translate(0 17.075)" fill="#81a4c5"/>
    <rect id="Rectangle_305" data-name="Rectangle 305" width="86.328" height="19.241" transform="translate(0 96.665)" fill="#81a4c5"/>
    <rect id="Rectangle_306" data-name="Rectangle 306" width="86.336" height="19.241" transform="translate(315.322 65.326)" fill="#81a4c5"/>
    <path id="Path_682" data-name="Path 682" d="M241.963,0,0,96.668l175.039,91.746L401.65,65.476Z" transform="translate(0.003 0)" fill="#86adc7"/>
  </g>
</svg>
