<svg xmlns="http://www.w3.org/2000/svg" xmlns:xlink="http://www.w3.org/1999/xlink" width="256" height="257" viewBox="0 0 256 257">
  <defs>
    <clipPath id="clip-path">
      <rect id="Rectangle_508" data-name="Rectangle 508" width="84.395" height="78.083" fill="none" stroke="#fff" stroke-width="3"/>
    </clipPath>
  </defs>
  <g id="Group_310" data-name="Group 310" transform="translate(-992 -4595)">
    <ellipse id="Ellipse_7" data-name="Ellipse 7" cx="128" cy="128.5" rx="128" ry="128.5" transform="translate(992 4595)" fill="#445064"/>
    <g id="Group_301" data-name="Group 301" transform="translate(1077 4684)">
      <g id="Group_300" data-name="Group 300" clip-path="url(#clip-path)">
        <line id="Line_102" data-name="Line 102" x1="21.341" y2="21.381" transform="translate(1.158 1.388)" fill="none" stroke="#fff" stroke-linecap="round" stroke-linejoin="round" stroke-width="3"/>
        <path id="Path_784" data-name="Path 784" d="M11.493,2h16V17.908" transform="translate(-4.836 -0.842)" fill="none" stroke="#fff" stroke-linecap="round" stroke-linejoin="round" stroke-width="3"/>
        <path id="Path_785" data-name="Path 785" d="M19.948,111.016V83.971A2.946,2.946,0,0,0,17,81.025H5.388a2.946,2.946,0,0,0-2.946,2.946v27.045" transform="translate(-1.027 -34.091)" fill="none" stroke="#fff" stroke-linecap="round" stroke-linejoin="round" stroke-width="3"/>
        <path id="Path_786" data-name="Path 786" d="M75.424,98.508V54.242A2.946,2.946,0,0,0,72.477,51.3H60.864a2.946,2.946,0,0,0-2.946,2.946V98.508" transform="translate(-24.369 -21.583)" fill="none" stroke="#fff" stroke-linecap="round" stroke-linejoin="round" stroke-width="3"/>
        <path id="Path_787" data-name="Path 787" d="M130.981,77.766V4.946A2.946,2.946,0,0,0,128.035,2H116.421a2.946,2.946,0,0,0-2.946,2.946v72.82" transform="translate(-47.745 -0.842)" fill="none" stroke="#fff" stroke-linecap="round" stroke-linejoin="round" stroke-width="3"/>
      </g>
    </g>
  </g>
</svg>
