<svg id="Group_163" data-name="Group 163" xmlns="http://www.w3.org/2000/svg" xmlns:xlink="http://www.w3.org/1999/xlink" width="480.381" height="507.769" viewBox="0 0 480.381 507.769">
  <defs>
    <clipPath id="clip-path">
      <rect id="Rectangle_251" data-name="Rectangle 251" width="480.381" height="507.769" fill="none"/>
    </clipPath>
  </defs>
  <g id="Group_162" data-name="Group 162" transform="translate(0 0)" clip-path="url(#clip-path)">
    <path id="Path_515" data-name="Path 515" d="M295.986,128.968c0,30.6-66.26,55.414-147.991,55.414S0,159.576,0,128.968,66.26,73.554,148,73.554s147.991,24.807,147.991,55.414" transform="translate(0 260.625)" fill="#e9e9e9"/>
    <path id="Path_516" data-name="Path 516" d="M295.986,109.649c0,29.964-66.26,54.252-147.991,54.252S0,139.613,0,109.649,66.26,55.4,148,55.4s147.991,24.289,147.991,54.252" transform="translate(0 185.692)" fill="#1f363a"/>
    <rect id="Rectangle_248" data-name="Rectangle 248" width="295.986" height="22.931" transform="translate(0 272.411)" fill="#1f363a"/>
    <path id="Path_517" data-name="Path 517" d="M338.356,146.622c0,30.6-66.26,55.414-147.991,55.414s-148-24.807-148-55.414,66.26-55.414,148-55.414,147.991,24.807,147.991,55.414" transform="translate(142.026 276.732)" fill="#e9e9e9"/>
    <path id="Path_518" data-name="Path 518" d="M164.2,101.473c0-17.874,23.588-33.728,59.967-43.612-22.252-4.909-48.308-7.734-76.174-7.734C66.26,50.128,0,74.417,0,104.38s66.26,54.252,147.991,54.252c32.975,0,63.422-3.956,88.024-10.641C192.991,138.5,164.2,121.223,164.2,101.473" transform="translate(0 168.031)" fill="#4d7175"/>
    <path id="Path_519" data-name="Path 519" d="M169.513,98.424c0-19.75-28.789-37.031-71.817-46.519C61.317,61.788,37.729,77.643,37.729,95.517c0,19.75,28.789,37.027,71.817,46.519,36.379-9.883,59.967-25.738,59.967-43.612" transform="translate(126.469 173.987)" fill="#476667"/>
    <path id="Path_520" data-name="Path 520" d="M218.261,53.875c0,20.764-45.283,37.593-101.146,37.593S15.97,74.638,15.97,53.875,61.253,16.282,117.116,16.282,218.261,33.111,218.261,53.875" transform="translate(53.532 54.578)" fill="#81a4c5"/>
    <rect id="Rectangle_249" data-name="Rectangle 249" width="202.291" height="15.889" transform="translate(69.502 92.563)" fill="#81a4c5"/>
    <path id="Path_521" data-name="Path 521" d="M218.261,50.224c0,20.764-45.283,37.593-101.146,37.593S15.97,70.987,15.97,50.224,61.253,12.631,117.116,12.631,218.261,29.46,218.261,50.224" transform="translate(53.532 42.339)" fill="#86adc7"/>
    <path id="Path_522" data-name="Path 522" d="M338.356,93.365c0,29.964-66.26,54.252-147.991,54.252s-148-24.289-148-54.252,66.26-54.252,148-54.252S338.356,63.4,338.356,93.365" transform="translate(142.026 131.108)" fill="#131d2c"/>
    <rect id="Rectangle_250" data-name="Rectangle 250" width="295.986" height="22.931" transform="translate(184.396 201.543)" fill="#131d2c"/>
    <path id="Path_523" data-name="Path 523" d="M189.792,33.844A385.611,385.611,0,0,0,140.819,36.9c9.975,5.745,15.776,12.56,15.776,19.876,0,20.476-45.287,37.079-101.146,37.079-4.378,0-8.678-.113-12.908-.309,7.451,27.4,70.533,48.8,147.251,48.8,81.731,0,147.991-24.289,147.991-54.252S271.527,33.844,189.792,33.844" transform="translate(142.599 113.446)" fill="#233247"/>
    <path id="Path_524" data-name="Path 524" d="M157.165,54.422c0-7.316-5.8-14.131-15.776-19.876-57.66,7.412-99.017,27.531-99.017,51.2a20.834,20.834,0,0,0,.74,5.444c4.23.2,8.534.313,12.908.313,55.863,0,101.146-16.6,101.146-37.079" transform="translate(142.029 115.799)" fill="#202c3c"/>
  </g>
</svg>
