<svg xmlns="http://www.w3.org/2000/svg" xmlns:xlink="http://www.w3.org/1999/xlink" width="256" height="257" viewBox="0 0 256 257">
  <defs>
    <clipPath id="clip-path">
      <rect id="Rectangle_504" data-name="Rectangle 504" width="126.054" height="100.961" fill="none" stroke="#3a465a" stroke-width="3"/>
    </clipPath>
  </defs>
  <g id="Group_304" data-name="Group 304" transform="translate(-992 -6400)">
    <ellipse id="Ellipse_11" data-name="Ellipse 11" cx="128" cy="128.5" rx="128" ry="128.5" transform="translate(992 6400)" fill="#dcdce1" opacity="0.22"/>
    <g id="Group_292" data-name="Group 292" transform="translate(1058 6486)">
      <rect id="Rectangle_501" data-name="Rectangle 501" width="12.602" height="12.602" transform="translate(37.119 14.459)" fill="none" stroke="#3a465a" stroke-miterlimit="10" stroke-width="3"/>
      <rect id="Rectangle_502" data-name="Rectangle 502" width="12.604" height="12.602" transform="translate(37.275 37.436)" fill="none" stroke="#3a465a" stroke-miterlimit="10" stroke-width="3"/>
      <rect id="Rectangle_503" data-name="Rectangle 503" width="12.604" height="12.602" transform="translate(60.879 14.459)" fill="none" stroke="#3a465a" stroke-miterlimit="10" stroke-width="3"/>
      <path id="Path_758" data-name="Path 758" d="M45.461,18.05V7.8h12.6V18.71" transform="translate(38.766 6.655)" fill="none" stroke="#3a465a" stroke-miterlimit="10" stroke-width="3"/>
      <g id="Group_291" data-name="Group 291" transform="translate(0 0)">
        <g id="Group_290" data-name="Group 290" clip-path="url(#clip-path)">
          <path id="Path_759" data-name="Path 759" d="M58.307,84l-22.355-22.4a5.573,5.573,0,0,1,.043-7.861l.608-.6a5.571,5.571,0,0,1,7.859.043L54.613,63.31V22.737a5.576,5.576,0,0,1,5.558-5.558h.463a5.576,5.576,0,0,1,5.558,5.558V43.61L87.5,47.132s6.948,1.391,6.948,10.5L92.416,83.106" transform="translate(29.292 14.649)" fill="none" stroke="#3a465a" stroke-linecap="round" stroke-linejoin="round" stroke-width="3"/>
          <path id="Path_760" data-name="Path 760" d="M57.778,79.765H6.808A5.575,5.575,0,0,1,1.25,74.207V6.808A5.575,5.575,0,0,1,6.808,1.25h96.3a5.576,5.576,0,0,1,5.558,5.558v44.66" transform="translate(1.066 1.066)" fill="none" stroke="#3a465a" stroke-linejoin="round" stroke-width="3"/>
          <line id="Line_97" data-name="Line 97" y2="78.381" transform="translate(24.071 2.383)" fill="none" stroke="#3a465a" stroke-linejoin="round" stroke-width="3"/>
          <line id="Line_98" data-name="Line 98" y2="8.211" transform="translate(13.552 37.47)" fill="none" stroke="#3a465a" stroke-linecap="round" stroke-linejoin="round" stroke-width="3"/>
        </g>
      </g>
    </g>
  </g>
</svg>
