<svg xmlns="http://www.w3.org/2000/svg" width="25.695" height="25.648" viewBox="0 0 25.695 25.648">
  <g id="Group_107" data-name="Group 107" transform="translate(-873.688 -6489)">
    <path id="Path_243" data-name="Path 243" d="M.422,8.516h5.33V25.648H.422ZM3.089,0A3.088,3.088,0,1,1,0,3.088,3.088,3.088,0,0,1,3.089,0" transform="translate(873.688 6489)" fill="#fff"/>
    <path id="Path_244" data-name="Path 244" d="M25.366,23h5.1v2.342h.073a5.593,5.593,0,0,1,5.038-2.767c5.391,0,6.387,3.547,6.387,8.161v9.4H36.644V31.8c0-1.987-.034-4.543-2.767-4.543-2.771,0-3.194,2.165-3.194,4.4v8.474H25.366Z" transform="translate(857.414 6474.52)" fill="#fff"/>
  </g>
</svg>
