<svg xmlns="http://www.w3.org/2000/svg" xmlns:xlink="http://www.w3.org/1999/xlink" width="126.58" height="19.357" viewBox="0 0 126.58 19.357">
  <defs>
    <clipPath id="clip-path">
      <rect id="Rectangle_307" data-name="Rectangle 307" width="126.58" height="19.357" transform="translate(0 0)" fill="none"/>
    </clipPath>
  </defs>
  <g id="Group_171" data-name="Group 171" transform="translate(0 0)">
    <g id="Group_170" data-name="Group 170" clip-path="url(#clip-path)">
      <path id="Path_683" data-name="Path 683" d="M72.442,12.861c.049,3.2,3.048,4.023,5.747,4.023,2.823,0,4.823-1.074,4.823-3.024,0-1.624-1.275-2.3-3.324-2.648l-4.048-.675c-2.123-.35-5.3-1.2-5.3-4.673,0-3.248,2.575-5.422,7.148-5.422,3.572,0,7.346,1.3,7.6,5.6H82.437c-.225-1.4-1.025-3.3-5.3-3.3-1.949,0-4.147.825-4.147,2.923,0,1.1.724,1.975,2.923,2.349l4.373.75c1.4.25,5.372.925,5.372,4.573,0,4.547-4.073,5.847-7.671,5.847-4.023,0-8.2-1.4-8.2-6.322Z" fill="#fff"/>
      <path id="Path_684" data-name="Path 684" d="M104.263.892h3.224l-7.872,10.37v7.471H96.966V11.387L89.145.892h3.374l5.822,8.121Z" fill="#fff"/>
      <path id="Path_685" data-name="Path 685" d="M113.361,12.861c.049,3.2,3.048,4.023,5.747,4.023,2.823,0,4.823-1.074,4.823-3.024,0-1.624-1.275-2.3-3.324-2.648l-4.048-.675c-2.123-.35-5.3-1.2-5.3-4.673,0-3.248,2.575-5.422,7.148-5.422,3.572,0,7.346,1.3,7.6,5.6h-2.649c-.225-1.4-1.025-3.3-5.3-3.3-1.949,0-4.148.825-4.148,2.923,0,1.1.725,1.975,2.924,2.349l4.373.75c1.4.25,5.372.925,5.372,4.573,0,4.547-4.073,5.847-7.671,5.847-4.023,0-8.2-1.4-8.2-6.322Z" fill="#fff"/>
      <path id="Path_686" data-name="Path 686" d="M9.768.888H0V18.739H9.768a8.926,8.926,0,0,0,0-17.851m0,15.207h-7V3.532h7a6.281,6.281,0,0,1,0,12.563" fill="#fff"/>
      <path id="Path_687" data-name="Path 687" d="M54.793.072a9.643,9.643,0,1,0,9.642,9.643A9.643,9.643,0,0,0,54.793.072m0,16.641a7,7,0,1,1,7-7,7.006,7.006,0,0,1-7,7" fill="#fff"/>
      <path id="Path_688" data-name="Path 688" d="M31.791,0l-10.8,18.736h21.6Zm0,5.294,6.342,11H25.449Z" fill="#fff"/>
    </g>
  </g>
</svg>
