<svg xmlns="http://www.w3.org/2000/svg" xmlns:xlink="http://www.w3.org/1999/xlink" width="257" height="257" viewBox="0 0 257 257">
  <defs>
    <clipPath id="clip-path">
      <rect id="Rectangle_507" data-name="Rectangle 507" width="98.575" height="95.215" fill="none" stroke="#3a465a" stroke-width="3"/>
    </clipPath>
  </defs>
  <g id="Group_302" data-name="Group 302" transform="translate(-182 -6401)">
    <circle id="Ellipse_13" data-name="Ellipse 13" cx="128.5" cy="128.5" r="128.5" transform="translate(182 6401)" fill="#dcdce1" opacity="0.22"/>
    <g id="Group_299" data-name="Group 299" transform="translate(262 6479)">
      <g id="Group_298" data-name="Group 298" transform="translate(0 0)" clip-path="url(#clip-path)">
        <path id="Path_778" data-name="Path 778" d="M64.1,79.093H16.165A14.958,14.958,0,0,1,1.25,64.178v-1.46A14.958,14.958,0,0,1,16.165,47.8H29.4a8.553,8.553,0,0,0,8.523-8.529v-2.95A8.548,8.548,0,0,0,29.4,27.8H23.523" transform="translate(0.629 13.994)" fill="none" stroke="#3a465a" stroke-linecap="round" stroke-linejoin="round" stroke-width="3"/>
        <path id="Path_779" data-name="Path 779" d="M79.242,36.4c0,12.307-22.286,49.838-22.286,49.838S34.671,48.7,34.671,36.4a22.286,22.286,0,1,1,44.571,0Z" transform="translate(17.453 7.102)" fill="none" stroke="#3a465a" stroke-linejoin="round" stroke-width="3"/>
        <path id="Path_780" data-name="Path 780" d="M62.2,32.12A9.517,9.517,0,1,1,52.679,22.6,9.52,9.52,0,0,1,62.2,32.12Z" transform="translate(21.729 11.378)" fill="none" stroke="#3a465a" stroke-linejoin="round" stroke-width="3"/>
        <path id="Path_781" data-name="Path 781" d="M26.447,13.57c0,6.8-12.32,27.553-12.32,27.553S1.806,20.375,1.806,13.57a12.32,12.32,0,1,1,24.641,0Z" transform="translate(0.909 0.629)" fill="none" stroke="#3a465a" stroke-linejoin="round" stroke-width="3"/>
        <path id="Path_782" data-name="Path 782" d="M11.9,9.386a1.421,1.421,0,1,1-1.419-1.422A1.417,1.417,0,0,1,11.9,9.386" transform="translate(4.558 4.009)" fill="none" stroke="#3a465a" stroke-width="3"/>
        <path id="Path_783" data-name="Path 783" d="M11.9,9.386a1.421,1.421,0,1,1-1.419-1.422A1.417,1.417,0,0,1,11.9,9.386Z" transform="translate(4.558 4.009)" fill="none" stroke="#3a465a" stroke-miterlimit="10" stroke-width="3"/>
      </g>
    </g>
  </g>
</svg>
