<svg xmlns="http://www.w3.org/2000/svg" xmlns:xlink="http://www.w3.org/1999/xlink" width="257" height="257" viewBox="0 0 257 257">
  <defs>
    <clipPath id="clip-path">
      <rect id="Rectangle_500" data-name="Rectangle 500" width="95.907" height="89.629" fill="none" stroke="#3a465a" stroke-width="3"/>
    </clipPath>
  </defs>
  <g id="Group_303" data-name="Group 303" transform="translate(-585 -6401)">
    <circle id="Ellipse_12" data-name="Ellipse 12" cx="128.5" cy="128.5" r="128.5" transform="translate(585 6401)" fill="#dcdce1" opacity="0.22"/>
    <g id="Group_289" data-name="Group 289" transform="translate(666.046 6485)">
      <g id="Group_288" data-name="Group 288" transform="translate(0 0)" clip-path="url(#clip-path)">
        <line id="Line_91" data-name="Line 91" x2="12.503" transform="translate(81.284 12.387)" fill="none" stroke="#3a465a" stroke-linecap="round" stroke-linejoin="round" stroke-width="3"/>
        <line id="Line_92" data-name="Line 92" x2="57.105" transform="translate(2.121 12.387)" fill="none" stroke="#3a465a" stroke-linecap="round" stroke-linejoin="round" stroke-width="3"/>
        <path id="Path_756" data-name="Path 756" d="M55.906,11.515A10.266,10.266,0,1,1,45.641,1.25,10.266,10.266,0,0,1,55.906,11.515Z" transform="translate(24.646 0.871)" fill="none" stroke="#3a465a" stroke-linejoin="round" stroke-width="3"/>
        <line id="Line_93" data-name="Line 93" x2="24.083" transform="translate(69.703 77.242)" fill="none" stroke="#3a465a" stroke-linecap="round" stroke-linejoin="round" stroke-width="3"/>
        <line id="Line_94" data-name="Line 94" x2="45.525" transform="translate(2.121 77.242)" fill="none" stroke="#3a465a" stroke-linecap="round" stroke-linejoin="round" stroke-width="3"/>
        <circle id="Ellipse_14" data-name="Ellipse 14" cx="10.267" cy="10.267" r="10.267" transform="translate(48.439 66.975)" fill="none" stroke="#3a465a" stroke-linejoin="round" stroke-width="3"/>
        <line id="Line_95" data-name="Line 95" x1="12.936" transform="translate(2.121 44.814)" fill="none" stroke="#3a465a" stroke-linecap="round" stroke-linejoin="round" stroke-width="3"/>
        <line id="Line_96" data-name="Line 96" x1="56.672" transform="translate(37.115 44.814)" fill="none" stroke="#3a465a" stroke-linecap="round" stroke-linejoin="round" stroke-width="3"/>
        <path id="Path_757" data-name="Path 757" d="M9.305,30.627A10.267,10.267,0,1,1,19.572,40.894,10.266,10.266,0,0,1,9.305,30.627Z" transform="translate(6.483 14.187)" fill="none" stroke="#3a465a" stroke-linejoin="round" stroke-width="3"/>
      </g>
    </g>
  </g>
</svg>
