<svg xmlns="http://www.w3.org/2000/svg" width="28.511" height="23.17" viewBox="0 0 28.511 23.17">
  <path id="Path_242" data-name="Path 242" d="M28.511,2.743a11.681,11.681,0,0,1-3.359.921A5.868,5.868,0,0,0,27.724.428a11.718,11.718,0,0,1-3.714,1.419,5.855,5.855,0,0,0-9.968,5.335A16.606,16.606,0,0,1,1.985,1.071a5.855,5.855,0,0,0,1.81,7.81,5.83,5.83,0,0,1-2.649-.732c0,.024,0,.049,0,.074a5.853,5.853,0,0,0,4.692,5.735,5.853,5.853,0,0,1-2.642.1A5.855,5.855,0,0,0,8.66,18.12a11.737,11.737,0,0,1-7.265,2.5A11.885,11.885,0,0,1,0,20.543,16.555,16.555,0,0,0,8.967,23.17c10.759,0,16.643-8.913,16.643-16.642q0-.381-.017-.757a11.882,11.882,0,0,0,2.919-3.028" fill="#fff"/>
</svg>
