<?xml version="1.0" standalone="no"?>
<!DOCTYPE svg PUBLIC "-//W3C//DTD SVG 20010904//EN"
 "http://www.w3.org/TR/2001/REC-SVG-20010904/DTD/svg10.dtd">
<svg version="1.0" xmlns="http://www.w3.org/2000/svg"
 width="963.000000pt" height="963.000000pt" viewBox="0 0 963.000000 963.000000"
 preserveAspectRatio="xMidYMid meet">
<metadata>
Created by potrace 1.14, written by Peter Selinger 2001-2017
</metadata>
<g transform="translate(0.000000,963.000000) scale(0.100000,-0.100000)"
fill="#000000" stroke="none">
<path d="M7138 8985 c-2 -2 -34 -6 -71 -10 -37 -3 -78 -8 -90 -11 -11 -2 -36
-5 -54 -6 -18 -1 -33 -6 -33 -10 0 -5 -11 -6 -24 -4 -13 2 -27 2 -30 -2 -4 -3
-16 -7 -28 -9 -65 -10 -313 -86 -403 -124 -16 -7 -32 -13 -35 -14 -3 -1 -18
-7 -33 -13 -16 -7 -33 -12 -38 -12 -5 0 -9 -4 -9 -10 0 -5 -3 -9 -7 -8 -12 4
-191 -86 -293 -147 -159 -96 -302 -198 -455 -325 -49 -41 -307 -302 -345 -348
-19 -24 -40 -49 -45 -55 -27 -31 -115 -147 -115 -152 0 -2 -18 -28 -39 -57
-22 -28 -38 -55 -35 -60 3 -4 1 -8 -5 -8 -8 0 -76 -109 -90 -145 -2 -5 -7 -12
-10 -15 -12 -10 -61 -110 -61 -124 0 -7 -7 -19 -15 -26 -8 -7 -12 -16 -9 -21
3 -5 0 -9 -5 -9 -6 0 -10 -3 -9 -7 1 -9 -6 -29 -32 -88 -14 -33 -40 -103 -45
-125 -1 -3 -4 -12 -8 -20 -36 -93 -70 -250 -95 -436 -14 -103 -4 -446 14 -475
2 -4 6 -24 10 -44 10 -67 7 -55 58 -210 2 -5 4 -13 5 -17 10 -40 155 -295 181
-318 3 -3 37 -43 75 -90 38 -47 74 -90 80 -96 5 -7 21 -26 35 -44 14 -18 37
-46 53 -62 15 -16 27 -33 27 -38 0 -4 3 -10 8 -12 6 -2 70 -78 107 -126 6 -7
17 -21 25 -30 9 -9 36 -42 60 -72 82 -100 94 -114 165 -186 38 -39 101 -94
138 -123 71 -53 216 -138 230 -133 4 1 7 -3 7 -8 0 -5 3 -9 8 -8 4 0 25 -7 47
-17 22 -9 45 -18 50 -20 11 -2 41 -13 70 -25 11 -5 31 -11 45 -14 14 -3 54
-12 90 -21 93 -21 155 -30 278 -39 23 -2 45 -6 49 -9 3 -4 14 -2 24 4 12 6 19
6 19 0 0 -6 11 -6 30 -1 18 5 32 5 36 -1 4 -7 10 -6 18 0 7 6 17 6 26 1 8 -5
19 -6 25 -2 5 3 24 7 40 8 46 3 139 13 174 19 17 3 45 7 61 10 51 9 163 34
198 44 18 5 33 10 35 10 4 0 28 7 112 35 44 14 87 28 96 30 10 3 57 22 105 43
49 21 91 38 94 39 9 1 65 28 70 34 3 3 46 25 95 50 50 24 92 47 95 51 3 3 12
9 20 13 31 14 178 108 210 133 8 6 49 37 90 67 41 30 84 63 96 73 11 10 47 41
80 68 72 61 252 241 316 315 37 44 140 174 186 235 6 9 92 142 130 200 6 11
24 45 40 75 15 30 29 57 32 60 6 5 75 147 90 185 4 11 18 45 30 75 22 52 37
96 45 130 2 8 8 27 14 43 6 15 9 27 6 27 -2 0 3 16 11 35 8 19 12 35 9 35 -3
0 -1 8 4 18 9 16 19 67 26 122 2 14 4 25 5 25 3 0 6 29 17 130 10 103 5 400
-7 400 -1 0 -3 16 -5 35 -7 62 -24 139 -35 160 -5 10 -7 20 -4 22 2 3 -2 18
-11 34 -8 16 -15 35 -15 42 0 6 -11 35 -25 64 -14 28 -25 57 -25 63 0 6 -6 17
-12 24 -7 6 -13 15 -13 19 0 4 -20 39 -45 77 -25 39 -47 75 -49 80 -2 6 -12
17 -21 25 -9 8 -23 24 -31 36 -8 12 -42 52 -75 90 -34 38 -83 95 -110 127 -27
31 -52 57 -56 57 -4 0 -8 5 -8 10 0 6 -10 21 -23 33 -12 12 -43 47 -69 77 -26
30 -62 72 -80 92 -18 20 -49 56 -68 79 -87 105 -281 289 -304 289 -4 0 -14 6
-21 13 -32 28 -45 35 -155 89 -171 84 -281 119 -455 143 -16 3 -41 7 -55 11
-24 5 -377 13 -382 9z m716 -1304 c38 -7 77 -16 87 -22 11 -5 19 -7 19 -5 0 3
18 -1 39 -9 22 -7 42 -11 45 -8 3 4 7 1 7 -5 1 -7 2 -15 4 -19 1 -5 5 -19 9
-33 4 -14 8 -51 10 -83 2 -31 5 -60 9 -63 3 -3 1 -19 -3 -35 -5 -17 -5 -31 1
-35 5 -3 6 -10 3 -16 -4 -6 -8 -34 -9 -62 -1 -28 -5 -62 -8 -76 -4 -14 -9 -38
-11 -55 -3 -16 -8 -43 -11 -60 -8 -36 -55 -186 -64 -200 -3 -5 -6 -13 -7 -17
-1 -5 -3 -10 -4 -13 -1 -3 -3 -8 -4 -12 -3 -14 -89 -188 -106 -213 -9 -14 -34
-52 -56 -85 -103 -158 -257 -332 -399 -450 -33 -28 -63 -54 -67 -60 -4 -5 -8
-6 -8 -1 0 5 -8 0 -17 -10 -22 -23 -173 -124 -234 -156 -24 -12 -45 -26 -47
-30 -2 -4 -8 -8 -14 -8 -6 0 -45 -16 -87 -36 -89 -42 -95 -44 -184 -77 -37
-14 -64 -21 -61 -15 4 6 -1 5 -12 -1 -28 -16 -121 -40 -128 -34 -3 4 -6 2 -6
-3 0 -6 -10 -10 -22 -11 -13 0 -48 -5 -78 -9 -66 -11 -326 -11 -393 -1 -26 4
-80 17 -120 28 -40 11 -78 21 -85 22 -22 1 -42 41 -49 98 -11 98 -6 262 12
352 14 72 24 120 29 142 2 6 9 24 15 40 7 17 14 37 16 45 6 30 48 127 91 215
38 75 164 278 184 295 3 3 27 32 54 66 60 76 210 224 296 293 36 29 73 59 83
67 9 8 21 14 26 14 5 0 11 4 13 8 6 16 271 178 310 191 11 3 80 31 103 41 65
29 115 48 115 45 0 -2 18 2 39 10 22 7 42 11 45 8 3 -4 6 -1 6 6 0 8 7 11 15
7 8 -3 15 -2 15 2 0 5 10 8 23 9 12 1 33 4 47 7 50 12 76 16 125 22 27 3 51 7
53 9 8 8 283 -3 346 -14z"/>
<path d="M3074 8723 c-16 -15 -255 -216 -343 -288 -13 -11 -34 -30 -47 -42
-13 -13 -27 -23 -33 -23 -5 0 -11 -4 -13 -9 -1 -4 -48 -46 -103 -91 -55 -46
-103 -88 -107 -94 -4 -6 -8 -8 -8 -4 0 4 -15 -7 -32 -25 -18 -18 -53 -48 -78
-67 -46 -35 -99 -81 -132 -112 -10 -10 -20 -18 -23 -18 -3 0 -13 -8 -23 -17
-10 -10 -39 -36 -66 -58 -27 -22 -56 -47 -66 -55 -10 -8 -39 -33 -66 -55 -27
-22 -80 -67 -119 -100 -38 -33 -97 -83 -130 -110 -33 -27 -62 -52 -65 -55 -3
-3 -45 -39 -95 -80 -49 -41 -95 -79 -101 -85 -6 -5 -29 -25 -52 -43 -23 -19
-51 -43 -64 -53 -86 -73 -110 -93 -168 -140 -36 -30 -67 -56 -70 -60 -3 -3
-48 -41 -100 -84 -52 -43 -99 -83 -105 -89 -5 -6 -32 -29 -60 -51 -27 -21 -52
-42 -55 -45 -6 -6 -115 -98 -149 -126 -54 -44 -201 -168 -254 -214 l-28 -25
333 -327 c183 -180 412 -404 508 -498 96 -94 329 -323 518 -508 306 -301 382
-369 382 -344 0 4 11 9 26 10 14 1 33 6 42 11 9 5 37 12 62 17 51 9 50 9 70
17 18 8 67 18 95 20 11 1 22 5 25 8 3 3 32 11 65 19 33 7 65 15 70 16 33 10
94 25 115 30 40 9 43 10 90 23 25 7 53 15 62 17 10 2 27 6 38 9 11 3 29 7 41
10 11 2 29 7 39 10 10 3 27 8 37 10 10 2 36 9 58 15 22 6 51 13 65 16 14 3 33
7 42 10 9 3 25 7 35 9 10 2 61 16 113 30 52 14 106 27 120 30 14 2 57 13 95
24 39 11 81 22 95 24 14 3 45 11 70 18 59 16 71 19 95 23 11 2 20 4 20 5 0 2
9 4 20 6 11 2 56 14 100 25 44 11 87 22 95 24 8 2 35 9 60 16 25 7 52 14 60
16 8 2 32 8 53 13 20 5 37 7 37 4 0 -3 6 -1 13 5 6 5 49 18 94 28 76 16 109
36 86 53 -4 3 -10 17 -12 31 -1 14 -7 28 -13 31 -5 3 -9 10 -9 15 1 14 -41
138 -50 148 -5 6 -9 16 -9 22 0 7 -5 25 -12 41 -6 15 -12 30 -13 33 -1 3 -5
14 -9 25 -4 11 -17 45 -28 75 -11 30 -24 64 -28 75 -28 72 -129 349 -135 375
-1 3 -7 18 -13 33 -7 16 -12 31 -12 34 0 3 -6 19 -14 36 -7 18 -19 48 -26 67
-7 19 -16 44 -20 55 -23 55 -45 121 -42 128 1 4 -3 7 -9 7 -5 0 -8 4 -4 9 3 5
1 12 -5 16 -5 3 -10 15 -10 26 0 10 -4 27 -9 37 -17 30 -71 181 -71 197 0 8
-4 15 -10 15 -5 0 -10 9 -10 20 0 11 -4 29 -10 40 -5 11 -14 29 -20 40 -5 11
-10 29 -10 40 0 11 -5 20 -11 20 -5 0 -8 4 -5 8 2 4 -2 21 -9 37 -22 48 -60
159 -57 168 1 4 -2 7 -7 7 -8 0 -25 56 -22 73 0 4 -4 7 -11 7 -6 0 -9 3 -5 6
3 4 -1 23 -9 43 -9 20 -33 83 -53 141 -21 58 -42 114 -48 125 -6 11 -14 35
-18 52 -3 18 -11 35 -16 38 -5 4 -9 16 -9 28 0 13 -6 31 -14 42 -7 11 -14 24
-14 28 0 8 -26 85 -42 122 -5 11 -36 97 -70 190 -34 94 -72 197 -85 230 -58
153 -109 301 -107 308 1 4 -2 7 -8 7 -5 0 -9 3 -9 8 6 35 -16 42 -47 15z"/>
<path d="M4166 4323 c-1 -1 -47 -5 -101 -8 -161 -8 -277 -21 -361 -40 -12 -3
-39 -7 -60 -11 -21 -3 -91 -19 -154 -35 -63 -16 -122 -31 -130 -33 -37 -10
-116 -39 -126 -47 -6 -5 -13 -6 -16 -3 -3 2 -31 -7 -61 -21 -31 -14 -59 -25
-62 -25 -9 0 -262 -127 -305 -152 -19 -12 -131 -81 -248 -155 -117 -73 -217
-133 -222 -133 -4 0 -10 -3 -12 -8 -1 -4 -75 -52 -163 -107 -88 -54 -161 -103
-163 -107 -2 -4 -8 -8 -14 -8 -6 0 -30 -13 -55 -30 -24 -16 -47 -30 -52 -30
-4 0 -16 -8 -27 -17 -11 -10 -29 -23 -40 -29 -53 -30 -69 -40 -80 -49 -6 -5
-39 -27 -73 -48 -59 -36 -61 -39 -62 -80 -1 -23 -3 -60 -5 -82 -2 -22 -5 -71
-8 -110 -2 -38 -5 -70 -6 -70 -1 0 -5 -60 -15 -205 -2 -36 -4 -65 -5 -65 0 0
-3 -40 -6 -90 -2 -49 -6 -96 -9 -102 -5 -16 25 -38 202 -149 168 -105 212
-133 378 -239 69 -44 141 -89 159 -100 46 -28 310 -196 511 -325 94 -60 184
-116 202 -125 18 -9 37 -23 44 -31 6 -8 17 -14 24 -14 6 0 20 -9 30 -20 10
-11 20 -18 23 -15 2 2 19 -6 36 -19 17 -13 148 -97 291 -187 143 -90 262 -166
265 -169 3 -3 15 -11 28 -17 48 -28 66 -38 76 -46 13 -9 78 -51 259 -166 71
-44 133 -81 138 -81 5 0 9 -3 9 -8 0 -4 20 -18 45 -32 25 -14 45 -28 45 -32 0
-5 5 -8 10 -8 12 0 124 -72 128 -83 2 -4 8 -5 13 -1 5 3 9 0 9 -5 0 -6 4 -11
9 -11 10 0 344 -210 381 -240 14 -11 31 -20 38 -20 6 0 12 -4 12 -10 0 -5 5
-10 11 -10 6 0 38 -18 70 -40 32 -22 63 -40 69 -40 5 0 10 -4 10 -10 0 -22 35
-7 120 50 49 33 94 60 99 60 5 0 11 3 13 8 4 10 176 122 187 122 5 0 11 3 13
8 5 10 146 102 158 102 5 0 10 3 10 8 0 4 16 16 35 26 19 11 35 22 35 26 0 4
11 12 25 18 14 6 73 43 131 82 58 38 110 70 115 70 5 0 9 5 9 10 0 6 7 10 15
10 8 0 15 5 15 10 0 6 4 10 9 10 11 0 135 82 139 92 2 4 8 8 14 8 5 0 20 8 33
18 12 9 33 24 45 32 55 36 180 140 240 200 73 72 170 191 170 209 0 6 4 11 9
11 10 0 100 176 106 206 2 11 4 20 5 22 2 1 4 7 5 12 1 6 4 12 5 15 3 5 3 8
13 45 12 46 18 85 20 130 1 25 6 48 12 52 6 5 5 8 -3 8 -7 0 -10 5 -6 11 4 7
8 33 10 58 2 25 6 71 9 101 7 60 12 117 19 195 2 28 7 74 10 103 3 28 8 73 11
100 3 26 8 83 11 127 2 44 5 97 7 118 1 20 0 37 -4 37 -3 0 -6 19 -8 43 -1 23
-9 69 -18 102 -8 33 -16 65 -17 70 -1 6 -8 20 -14 33 -7 12 -10 22 -7 22 16 0
-137 270 -157 278 -4 2 -8 8 -8 14 0 5 -6 15 -12 23 -7 7 -29 33 -48 57 -69
85 -298 304 -333 317 -9 3 -25 15 -61 46 -7 6 -19 15 -28 20 -8 6 -42 28 -74
50 -33 22 -70 45 -84 52 -14 7 -41 22 -60 34 -19 12 -53 31 -75 42 -22 12 -43
26 -46 30 -3 5 -8 8 -10 7 -2 -2 -38 13 -79 33 -41 20 -77 35 -80 34 -3 -1
-22 9 -42 21 -21 13 -38 21 -38 18 0 -4 -17 2 -37 12 -21 10 -81 33 -133 51
-52 18 -104 36 -115 41 -11 5 -40 14 -65 21 -25 6 -52 14 -60 17 -8 3 -20 6
-26 7 -6 2 -51 13 -100 25 -49 12 -100 24 -114 26 -14 2 -38 7 -55 11 -44 9
-56 11 -100 17 -22 3 -51 8 -65 11 -23 6 -49 9 -180 21 -126 11 -398 23 -404
17z"/>
</g>
</svg>
